HIERARCHY
ROOT Hips
{
	OFFSET -0.001795 -0.223333 0.028219
	CHANNELS 6 Xposition Yposition Zposition Zrotation Yrotation Xrotation 
	JOINT LeftUpLeg
	{
		OFFSET 0.069520 -0.091406 -0.006815
		CHANNELS 3 Zrotation Yrotation Xrotation
		JOINT LeftLeg
		{
			OFFSET 0.034277 -0.375199 -0.004496
			CHANNELS 3 Zrotation Yrotation Xrotation
			JOINT LeftFoot
			{
				OFFSET -0.013596 -0.397961 -0.043693
				CHANNELS 3 Zrotation Yrotation Xrotation
				JOINT LeftToe
				{
					OFFSET 0.026358 -0.055791 0.119288
					CHANNELS 3 Zrotation Yrotation Xrotation
					End Site
					{
						OFFSET 0.000000 0.000000 0.000000
					}
				}
			}
		}
	}
	JOINT RightUpLeg
	{
		OFFSET -0.067670 -0.090522 -0.004320
		CHANNELS 3 Zrotation Yrotation Xrotation
		JOINT RightLeg
		{
			OFFSET -0.038290 -0.382569 -0.008850
			CHANNELS 3 Zrotation Yrotation Xrotation
			JOINT RightFoot
			{
				OFFSET 0.015774 -0.398415 -0.042312
				CHANNELS 3 Zrotation Yrotation Xrotation
				JOINT RightToe
				{
					OFFSET -0.025372 -0.048144 0.123348
					CHANNELS 3 Zrotation Yrotation Xrotation
					End Site
					{
						OFFSET 0.000000 0.000000 0.000000
					}
				}
			}
		}
	}
	JOINT Spine
	{
		OFFSET -0.002533 0.108963 -0.026696
		CHANNELS 3 Zrotation Yrotation Xrotation
		JOINT Spine1
		{
			OFFSET 0.005487 0.135180 0.001092
			CHANNELS 3 Zrotation Yrotation Xrotation
			JOINT Spine2
			{
				OFFSET 0.001457 0.052922 0.025425
				CHANNELS 3 Zrotation Yrotation Xrotation
				JOINT Neck
				{
					OFFSET -0.002778 0.213870 -0.042857
					CHANNELS 3 Zrotation Yrotation Xrotation
					JOINT Head
					{
						OFFSET 0.005152 0.064970 0.051349
						CHANNELS 3 Zrotation Yrotation Xrotation
						End Site
						{
							OFFSET 0.000000 0.000000 0.000000
						}
					}
				}
				JOINT LeftShoulder
				{
					OFFSET 0.078845 0.121749 -0.034090
					CHANNELS 3 Zrotation Yrotation Xrotation
					JOINT LeftArm
					{
						OFFSET 0.090977 0.030469 -0.008868
						CHANNELS 3 Zrotation Yrotation Xrotation
						JOINT LeftForeArm
						{
							OFFSET 0.259612 -0.012772 -0.027456
							CHANNELS 3 Zrotation Yrotation Xrotation
							JOINT LeftHand
							{
								OFFSET 0.249234 0.008986 -0.001171
								CHANNELS 3 Zrotation Yrotation Xrotation
								End Site
								{
									OFFSET 0.000000 0.000000 0.000000
								}
							}
						}
					}
				}
				JOINT RightShoulder
				{
					OFFSET -0.081759 0.118833 -0.038615
					CHANNELS 3 Zrotation Yrotation Xrotation
					JOINT RightArm
					{
						OFFSET -0.096012 0.032551 -0.009143
						CHANNELS 3 Zrotation Yrotation Xrotation
						JOINT RightForeArm
						{
							OFFSET -0.253742 -0.013329 -0.021401
							CHANNELS 3 Zrotation Yrotation Xrotation
							JOINT RightHand
							{
								OFFSET -0.255298 0.007772 -0.005559
								CHANNELS 3 Zrotation Yrotation Xrotation
								End Site
								{
									OFFSET 0.000000 0.000000 0.000000
								}
							}
						}
					}
				}
			}
		}
	}
}
MOTION
Frames: 13
Frame Time: 0.050000
-1.146663 0.938456 -2.382061 4.414590 -4.362772 6.775455 -3.081177 -2.234450 -20.372169 0.038297 -0.400379 15.329625 0.713917 3.070039 4.429232 0.000000 0.000000 0.000000 3.886710 0.735829 -6.967179 -6.449111 5.731430 40.638530 12.115722 23.459175 7.324884 0.000000 0.000000 0.000000 0.280238 -0.436335 11.705179 0.067618 0.471965 -21.713812 -3.010771 23.051713 27.967770 15.314012 -3.024892 -30.214084 0.000000 0.000000 0.000000 -6.909282 -10.357309 1.478977 -55.343805 -16.064106 -2.398240 8.909203 -28.147303 -2.300509 0.000000 0.000000 0.000000 16.746390 -3.247277 1.493513 63.562785 17.119526 2.036967 -3.189055 32.342062 2.185676 0.000000 0.000000 0.000000 
-1.148751 0.939471 -2.315326 4.315508 -5.530105 5.232974 -2.981173 -1.745767 -15.944090 -2.189000 0.254552 19.484104 2.521337 5.748715 1.396736 0.000000 0.000000 0.000000 3.372228 1.857877 -15.076927 -2.623874 6.536511 58.082013 10.142248 14.035099 13.048644 0.000000 0.000000 0.000000 0.181400 -0.438333 12.710110 -0.858266 0.685847 -21.914266 -3.696970 18.911564 27.379910 14.275630 -3.117968 -30.747741 0.000000 0.000000 0.000000 -5.812838 -10.481484 2.377935 -52.813819 -18.513310 -1.091659 9.314366 -29.529605 -2.108065 0.000000 0.000000 0.000000 15.821284 -4.714418 -0.401998 63.493527 12.597275 -0.705416 1.870491 31.056521 3.097690 0.000000 0.000000 0.000000 
-1.153200 0.941553 -2.248403 3.400126 -5.082652 3.742874 -2.577261 -1.022976 -9.356413 -1.543384 0.042190 19.355721 3.274925 7.212072 0.961603 0.000000 0.000000 0.000000 2.035670 2.682273 -21.939585 1.924848 3.721977 64.001977 4.101212 5.272641 7.539081 0.000000 0.000000 0.000000 1.892081 -0.698462 13.176319 -0.650507 0.639840 -22.164698 -5.272592 14.085064 28.034085 12.623696 -2.906168 -31.223797 0.000000 0.000000 0.000000 -7.418865 -11.046000 3.015726 -49.042931 -20.448068 -0.088981 11.281190 -30.944728 -2.348028 0.000000 0.000000 0.000000 14.726823 -4.337892 -1.065445 63.680655 8.867312 -3.115593 4.175182 30.275085 3.325454 0.000000 0.000000 0.000000 
-1.160762 0.943706 -2.179799 2.370878 -5.473264 2.837058 -1.867080 -0.288897 -2.786049 -0.697398 -0.186954 18.925543 3.576365 8.077934 1.998233 0.000000 0.000000 0.000000 1.255405 3.271010 -26.869825 5.376511 0.833921 57.733453 -1.461574 -3.783616 0.037122 0.000000 0.000000 0.000000 3.418023 -0.941363 14.019099 -1.021450 0.750267 -23.151845 -5.315428 10.334321 27.982821 11.138727 -2.697120 -31.629391 0.000000 0.000000 0.000000 -5.872656 -9.227463 2.853737 -50.765040 -22.609323 0.893683 10.991985 -33.717843 -2.041047 0.000000 0.000000 0.000000 13.246450 -3.826975 -1.470116 63.492535 5.905833 -4.972090 5.548106 28.523627 3.159489 0.000000 0.000000 0.000000 
-1.172126 0.947824 -2.108479 1.494651 -5.584310 3.582327 -0.118285 0.178879 1.841372 -0.039652 -0.367671 18.166738 2.785726 7.489749 6.385934 0.000000 0.000000 0.000000 1.203009 3.510281 -28.564731 6.346615 -0.322159 41.287961 -3.943610 -9.018160 -2.946401 0.000000 0.000000 0.000000 5.362505 -1.049242 11.611360 -1.266112 0.784892 -22.364040 -5.477319 7.825956 28.580802 10.059974 -2.504880 -32.070449 0.000000 0.000000 0.000000 -5.471576 -7.196854 2.330559 -52.619165 -21.958918 0.779887 11.333293 -39.636759 -2.125042 0.000000 0.000000 0.000000 13.119776 -3.821046 -1.866633 62.057746 3.104597 -6.687395 6.367227 27.307952 3.021655 0.000000 0.000000 0.000000 
-1.186916 0.947889 -2.035165 0.188732 -5.300187 4.606228 2.009398 0.286659 3.962208 1.326783 -0.811871 20.341645 2.439741 8.343302 13.388408 0.000000 0.000000 0.000000 2.181073 3.897059 -29.797237 5.348701 -0.294640 26.392566 -4.678926 -12.055685 0.641934 0.000000 0.000000 0.000000 7.803854 -1.194547 9.830128 -0.781459 0.694530 -23.645507 -5.890569 8.456431 29.224210 10.287876 -2.474592 -32.572582 0.000000 0.000000 0.000000 -5.018324 -6.733728 2.119905 -54.857121 -21.719786 0.638723 10.473168 -43.446925 -1.994225 0.000000 0.000000 0.000000 14.290954 -4.750694 -2.273093 60.713897 1.666413 -7.420646 5.869504 24.847804 2.598422 0.000000 0.000000 0.000000 
-1.205797 0.943439 -1.961898 -0.185469 -7.597359 4.154430 4.612699 0.043340 1.271126 -0.590237 0.140407 33.673268 2.649486 9.369332 18.242688 0.000000 0.000000 0.000000 3.107380 4.110429 -28.874887 5.225955 -0.172547 22.495149 -4.788209 -13.053534 3.218657 0.000000 0.000000 0.000000 9.332215 -1.341748 10.186182 -1.815686 0.902420 -23.648818 -4.002455 10.851796 28.683756 8.760406 -1.468360 -32.795320 0.000000 0.000000 0.000000 -6.751684 -6.589851 1.885839 -55.752110 -19.279855 -0.459348 8.818315 -46.537034 -1.590738 0.000000 0.000000 0.000000 13.074157 -3.703019 -1.557590 63.366394 1.079534 -7.728174 3.098912 22.806981 1.844474 0.000000 0.000000 0.000000 
-1.228103 0.935233 -1.890733 -0.679795 -7.697225 2.187157 6.376501 -0.190937 -5.627989 0.617636 0.051822 52.092718 0.694684 7.112237 19.761930 0.000000 0.000000 0.000000 4.821820 3.955692 -25.797921 6.375499 -0.397641 26.617200 -6.683293 -17.192320 3.713916 0.000000 0.000000 0.000000 10.422919 -1.601048 12.085580 -2.867678 1.181949 -25.545224 -2.479268 12.977360 29.838957 10.733238 -2.126318 -33.340146 0.000000 0.000000 0.000000 -8.108279 -7.019414 1.755920 -57.140306 -16.378865 -2.080608 5.587225 -46.541496 -0.478077 0.000000 0.000000 0.000000 15.291760 -4.392051 -1.559708 61.103649 1.758561 -7.404786 2.850568 22.168408 1.813822 0.000000 0.000000 0.000000 
-1.253398 0.932910 -1.821742 -0.627757 -10.633734 0.918643 6.618663 -0.239492 -13.441925 1.826783 0.825589 65.656178 0.698243 6.167327 15.328412 0.000000 0.000000 0.000000 6.594683 3.514629 -21.292941 6.084016 0.093426 28.998194 -6.734665 -16.913179 1.945018 0.000000 0.000000 0.000000 9.635035 -1.532052 13.223681 -3.794271 1.353005 -25.215716 -0.003020 14.633795 29.459489 9.724689 -1.687126 -32.718174 0.000000 0.000000 0.000000 -11.299200 -6.174045 1.117759 -55.658493 -12.323004 -3.721811 0.431675 -40.973939 1.438550 0.000000 0.000000 0.000000 16.713874 -2.260322 -0.419922 59.768290 6.020418 -5.375115 -0.885971 21.699295 1.138173 0.000000 0.000000 0.000000 
-1.282151 0.938945 -1.753405 -0.185172 -14.045088 -0.031354 7.177566 0.080434 -20.508767 2.495840 1.857686 67.788652 1.130726 5.808966 11.583235 0.000000 0.000000 0.000000 8.377668 2.525350 -15.109047 3.852105 1.122816 27.936499 -5.187675 -12.667422 0.134340 0.000000 0.000000 0.000000 8.071364 -1.311073 13.849381 -3.966316 1.357325 -26.184162 2.741176 17.623715 29.978179 10.375538 -1.943881 -32.350122 0.000000 0.000000 0.000000 -12.935772 -6.876970 1.148271 -55.630412 -7.311649 -5.984585 -1.252740 -35.207163 1.672950 0.000000 0.000000 0.000000 17.485788 -1.271493 0.296147 59.520794 10.772637 -3.085647 -3.028045 22.951894 0.899596 0.000000 0.000000 0.000000 
-1.312739 0.946831 -1.685369 -0.092016 -18.490622 -0.190290 6.972164 0.574916 -25.636385 2.812883 2.612159 60.479554 2.047998 6.320989 8.957415 0.000000 0.000000 0.000000 9.931046 1.236647 -8.429217 0.808393 2.031962 24.504764 -2.676297 -6.680389 0.394924 0.000000 0.000000 0.000000 6.530847 -1.051444 13.928483 -3.637227 1.257941 -27.495538 4.352880 20.662556 30.469565 11.036194 -2.278235 -32.089945 0.000000 0.000000 0.000000 -13.314308 -4.766034 0.087991 -54.591722 -1.917629 -8.233652 -5.172867 -30.624118 2.473857 0.000000 0.000000 0.000000 17.949587 -0.869777 0.567661 59.544060 15.415654 -0.773590 -3.528301 26.000562 1.026839 0.000000 0.000000 0.000000 
-1.343087 0.950026 -1.616941 0.495789 -22.632055 -0.076152 5.984258 0.836096 -27.929966 0.049703 3.309191 44.188871 3.790653 8.416662 7.319013 0.000000 0.000000 0.000000 9.386380 -0.002638 -2.215940 -0.906395 2.165802 20.724172 -0.694100 -0.533447 -1.280736 0.000000 0.000000 0.000000 5.400162 -0.784840 11.971877 -3.394148 1.084629 -25.969843 5.179161 23.442691 29.631548 11.117935 -2.225900 -32.385221 0.000000 0.000000 0.000000 -13.888364 -4.974820 0.105580 -53.359458 3.252744 -10.085880 -7.043016 -28.466271 2.727141 0.000000 0.000000 0.000000 16.981658 0.299775 1.078727 60.669721 18.039602 0.950902 -5.812058 31.462947 0.833809 0.000000 0.000000 0.000000 
-1.373420 0.946058 -1.547850 1.096389 -26.592916 -0.486266 3.420054 0.320895 -26.654265 -0.460547 1.097273 21.811680 4.010897 8.109867 7.854405 0.000000 0.000000 0.000000 7.617734 -0.863934 4.169454 -2.212073 2.271356 18.658531 2.509895 6.766341 -0.610354 0.000000 0.000000 0.000000 4.972957 -0.668470 11.344976 -2.554604 0.885579 -26.791672 5.843065 26.282759 30.591455 10.839785 -2.053063 -32.299885 0.000000 0.000000 0.000000 -14.462389 -4.237791 -0.319879 -52.320433 6.514236 -11.247537 -8.245422 -27.682754 2.936285 0.000000 0.000000 0.000000 16.870633 0.099326 0.989192 60.064560 21.636686 2.749569 -6.417472 35.051807 0.908901 0.000000 0.000000 0.000000 
